<?xml version="1.0" encoding="UTF-8" standalone="no"?>
<!-- Created with Inkscape (http://www.inkscape.org/) -->

<svg
   xmlns:dc="http://purl.org/dc/elements/1.1/"
   xmlns:cc="http://creativecommons.org/ns#"
   xmlns:rdf="http://www.w3.org/1999/02/22-rdf-syntax-ns#"
   xmlns:svg="http://www.w3.org/2000/svg"
   xmlns="http://www.w3.org/2000/svg"
   xmlns:sodipodi="http://sodipodi.sourceforge.net/DTD/sodipodi-0.dtd"
   xmlns:inkscape="http://www.inkscape.org/namespaces/inkscape"
   width="17.607143"
   height="17"
   id="svg60018"
   version="1.1"
   inkscape:version="0.48.4 r9939"
   sodipodi:docname="github.svg">
  <defs
     id="defs60020" />
  <sodipodi:namedview
     id="base"
     pagecolor="#ffffff"
     bordercolor="#666666"
     borderopacity="1.0"
     inkscape:pageopacity="0.0"
     inkscape:pageshadow="2"
     inkscape:zoom="0.35"
     inkscape:cx="155.23214"
     inkscape:cy="-82.928573"
     inkscape:document-units="px"
     inkscape:current-layer="layer1"
     showgrid="false"
     fit-margin-top="0"
     fit-margin-left="0"
     fit-margin-right="0"
     fit-margin-bottom="0"
     inkscape:window-width="513"
     inkscape:window-height="406"
     inkscape:window-x="0"
     inkscape:window-y="55"
     inkscape:window-maximized="0" />
  <metadata
     id="metadata60023">
    <rdf:RDF>
      <cc:Work
         rdf:about="">
        <dc:format>image/svg+xml</dc:format>
        <dc:type
           rdf:resource="http://purl.org/dc/dcmitype/StillImage" />
        <dc:title />
      </cc:Work>
    </rdf:RDF>
  </metadata>
  <g
     inkscape:label="Layer 1"
     inkscape:groupmode="layer"
     id="layer1"
     transform="translate(-219.76786,-432.43361)">
    <g
       style="fill:#666666;display:inline"
       transform="matrix(0.55022321,0,0,-0.53125,237.375,440.93361)"
       id="g1876-2-5-8-1-6-9-4-3">
      <path
         inkscape:connector-curvature="0"
         id="path1878-9-8-7-9-6-5-1-0"
         style="fill:#666666;fill-opacity:1;fill-rule:nonzero;stroke:none"
         d="m 0,0 c 0,-2.903 -0.715,-5.58 -2.146,-8.031 -1.43,-2.451 -3.372,-4.393 -5.823,-5.823 C -10.42,-15.285 -13.097,-16 -16,-16 c -2.903,0 -5.58,0.715 -8.031,2.146 -2.451,1.43 -4.393,3.372 -5.823,5.823 C -31.285,-5.58 -32,-2.903 -32,0 c 0,2.903 0.715,5.58 2.146,8.031 1.43,2.451 3.372,4.393 5.823,5.823 2.451,1.431 5.128,2.146 8.031,2.146 2.903,0 5.58,-0.715 8.031,-2.146 2.451,-1.43 4.393,-3.372 5.823,-5.823 C -0.715,5.58 0,2.903 0,0 m -2.667,0 c 0,1.806 -0.354,3.531 -1.062,5.177 -0.708,1.646 -1.656,3.063 -2.844,4.25 -1.187,1.188 -2.604,2.136 -4.25,2.844 -1.646,0.708 -3.371,1.062 -5.177,1.062 -1.806,0 -3.531,-0.354 -5.177,-1.062 -1.646,-0.708 -3.063,-1.656 -4.25,-2.844 -1.188,-1.187 -2.135,-2.604 -2.844,-4.25 -0.708,-1.646 -1.062,-3.371 -1.062,-5.177 0,-2.903 0.864,-5.531 2.593,-7.885 1.73,-2.355 3.976,-3.962 6.74,-4.823 l 0,3.52 c -0.75,-0.097 -1.229,-0.145 -1.437,-0.145 -1.528,0 -2.591,0.694 -3.188,2.083 -0.208,0.528 -0.458,0.965 -0.75,1.313 -0.069,0.083 -0.215,0.215 -0.437,0.395 -0.223,0.181 -0.42,0.348 -0.594,0.5 -0.174,0.153 -0.261,0.264 -0.261,0.334 0,0.166 0.195,0.25 0.584,0.25 0.402,0 0.76,-0.101 1.073,-0.302 0.312,-0.202 0.576,-0.445 0.791,-0.73 0.216,-0.284 0.434,-0.572 0.657,-0.864 0.222,-0.292 0.503,-0.539 0.843,-0.74 0.341,-0.201 0.733,-0.302 1.177,-0.302 0.584,0 1.146,0.097 1.688,0.292 0.222,0.792 0.66,1.41 1.312,1.854 -2.305,0.222 -4.014,0.802 -5.125,1.74 -1.111,0.937 -1.666,2.496 -1.666,4.677 0,1.639 0.507,3.014 1.521,4.125 -0.195,0.583 -0.292,1.166 -0.292,1.75 0,0.805 0.187,1.562 0.562,2.271 0.792,0 1.493,-0.136 2.105,-0.407 0.611,-0.271 1.312,-0.691 2.104,-1.26 1.055,0.25 2.229,0.375 3.52,0.375 1.112,0 2.174,-0.111 3.188,-0.334 0.792,0.556 1.49,0.966 2.094,1.23 0.604,0.264 1.295,0.396 2.073,0.396 0.375,-0.709 0.562,-1.466 0.562,-2.271 0,-0.598 -0.097,-1.174 -0.292,-1.73 1.014,-1.138 1.521,-2.52 1.521,-4.145 0,-2.181 -0.555,-3.747 -1.666,-4.698 -1.111,-0.951 -2.813,-1.531 -5.105,-1.74 C -12.479,-5.924 -12,-6.833 -12,-8 l 0,-4.708 c 2.764,0.861 5.01,2.468 6.74,4.823 1.729,2.354 2.593,4.982 2.593,7.885" />
    </g>
  </g>
</svg>
