<?xml version="1.0" encoding="UTF-8" standalone="no"?>
<!-- Created with Inkscape (http://www.inkscape.org/) -->

<svg
   xmlns:dc="http://purl.org/dc/elements/1.1/"
   xmlns:cc="http://creativecommons.org/ns#"
   xmlns:rdf="http://www.w3.org/1999/02/22-rdf-syntax-ns#"
   xmlns:svg="http://www.w3.org/2000/svg"
   xmlns="http://www.w3.org/2000/svg"
   xmlns:sodipodi="http://sodipodi.sourceforge.net/DTD/sodipodi-0.dtd"
   xmlns:inkscape="http://www.inkscape.org/namespaces/inkscape"
   width="276.67465"
   height="15.80277"
   id="svg59840"
   version="1.1"
   inkscape:version="0.48.4 r9939"
   sodipodi:docname="grass.svg">
  <defs
     id="defs59842">
    <clipPath
       clipPathUnits="userSpaceOnUse"
       id="clipPath59275">
      <rect
         style="fill:#666666;fill-opacity:1;stroke:#666666;stroke-width:0.96805513;stroke-miterlimit:4;stroke-opacity:0;stroke-dasharray:none"
         id="rect59277"
         width="276.61423"
         height="17.472616"
         x="268.56042"
         y="533.45148" />
    </clipPath>
  </defs>
  <sodipodi:namedview
     id="base"
     pagecolor="#ffffff"
     bordercolor="#666666"
     borderopacity="1.0"
     inkscape:pageopacity="0.0"
     inkscape:pageshadow="2"
     inkscape:zoom="2.8"
     inkscape:cx="175.31781"
     inkscape:cy="21.545006"
     inkscape:document-units="px"
     inkscape:current-layer="layer1"
     showgrid="false"
     fit-margin-top="0"
     fit-margin-left="0"
     fit-margin-right="0"
     fit-margin-bottom="0"
     inkscape:window-width="1920"
     inkscape:window-height="1145"
     inkscape:window-x="0"
     inkscape:window-y="27"
     inkscape:window-maximized="1" />
  <metadata
     id="metadata59845">
    <rdf:RDF>
      <cc:Work
         rdf:about="">
        <dc:format>image/svg+xml</dc:format>
        <dc:type
           rdf:resource="http://purl.org/dc/dcmitype/StillImage" />
        <dc:title />
      </cc:Work>
    </rdf:RDF>
  </metadata>
  <g
     inkscape:label="Layer 1"
     inkscape:groupmode="layer"
     id="layer1"
     transform="translate(-250.20484,-541.60365)">
    <g
       transform="translate(-18.295164,7.3520549)"
       id="g59813"
       style="fill:#222222;fill-opacity:1">
      <path
         clip-path="url(#clipPath59275)"
         d="m 415.27277,546.7537 c 0.1891,-0.7338 0.3776,-1.4676 0.8255,-2.1949 0.4478,-0.7271 1.2242,-1.4451 1.863,-2.1684 1.142,-1.1636 2.0626,-2.3357 3.0974,-3.5035 1.0347,-1.1677 2.0732,-2.3354 3.1112,-3.503 -0.4002,1.8615 -0.8004,3.723 -0.4788,5.5794 0.3212,1.8564 1.3638,3.7076 2.407,5.5588 0.7597,-0.9673 1.5191,-1.9347 2.0035,-2.9077 0.4843,-0.973 0.6932,-1.9516 0.9016,-2.9303 -0.1304,-0.013 -0.2542,-0.029 -0.3669,-0.048 -1.021,-0.2055 -0.8537,-0.3891 -0.2612,-0.5575 0.3915,-0.091 0.7432,-0.1172 1.1069,-0.1344 1.1841,0.8262 2.3676,1.6524 2.9181,2.4956 0.5505,0.8432 0.4677,1.7034 0.385,2.5637 0.794,-0.9398 1.588,-1.8795 2.668,-2.8055 1.0806,-0.9259 2.4468,-1.8381 3.8129,-2.7504 0.055,1.2144 0.11,2.4288 0.3568,3.6416 0.2468,1.2127 0.6854,2.424 1.124,3.6351 0.2324,0.099 0.4728,0.1968 0.721,0.2947 -0.2755,-0.997 -0.551,-1.9941 -0.2182,-2.9829 0.3323,-0.9886 1.2728,-1.9688 2.2128,-2.9491 0.9951,0.557 1.9897,1.114 2.4823,1.6888 0.4927,0.5747 0.4829,1.1671 0.4737,1.7596 0.789,-0.896 1.5783,-1.792 2.8035,-2.6627 1.2252,-0.8707 2.8867,-1.7161 4.5481,-2.5616 0.6442,-0.1568 1.2969,-0.3131 1.9587,-0.4689 -1.4647,1.2199 -2.9292,2.4398 -3.671,3.6775 -0.7412,1.2377 -0.7603,2.4933 -0.7787,3.7488 0.4062,0.2885 0.818,0.5769 1.2354,0.8651 -0.2339,-1.0079 -0.4678,-2.016 0.041,-3.0083 0.5084,-0.9924 1.7589,-1.9691 3.0096,-2.9457 0.5458,0.1789 0.9955,0.37 1.3371,0.5687 1.074,0.6326 1.0259,1.2684 0.067,1.8604 -0.1,0.9075 -0.2057,1.815 -0.3166,2.7225 2.0834,-1.1028 4.1668,-2.2055 5.4474,-3.3455 1.2807,-1.1399 1.7591,-2.3169 2.2374,-3.4939 0.233,-0.1374 0.4792,-0.2743 0.739,-0.4108 0.2056,1.1908 0.4113,2.3816 0.8236,3.5695 0.4123,1.1879 1.0311,2.3728 1.6494,3.5577 0.2894,0.1686 0.5856,0.337 0.8893,0.5051 0.2716,-2.0017 0.5439,-4.0034 1.1147,-6.0016 0.5707,-1.9982 1.4406,-3.9929 2.3103,-5.9876 1.2335,1.796 2.1163,3.6018 2.5845,5.4117 0.4682,1.8099 0.5218,3.6237 0.5531,4.5528 0.031,0.9291 0.04,0.9736 0.077,1.017 0.036,0.043 0.1003,0.086 0.1859,0.127 0.2195,0.1177 0.8282,0.245 1.2852,0.2916 -0.2828,-1.26 -0.5661,-2.5201 -0.3766,-3.7772 0.189,-1.257 0.8509,-2.5112 1.5122,-3.7654 0.8868,0.4653 1.4244,0.9581 1.4845,1.4526 0.06,0.4945 -0.3577,0.9908 -0.4959,1.6221 -0.1387,0.6313 0,1.3977 0.6876,2.1449 0.6859,0.7472 1.9171,1.4752 3.597,2.1575 -0.2657,-0.9839 -0.5315,-1.9678 0.3356,-2.9086 0.8674,-0.9408 2.8682,-1.8387 4.8688,-2.7365 0.7663,0.6152 1.3616,1.2392 1.7364,1.8685 0.3748,0.6293 0.5287,1.2639 0.7487,1.7788 0.2199,0.5151 0.5061,0.9104 1.0204,1.2938 0.5144,0.3833 1.2566,0.7547 2.1893,1.1052 -0.062,-1.6341 -0.1238,-3.2683 0.8115,-4.8787 0.9355,-1.6103 2.8678,-3.1967 4.8006,-4.7832 0.5934,-0.1918 1.1937,-0.3832 1.8019,-0.5743 -0.098,-0.033 -0.1197,-0.066 -0.099,-0.098 0.1373,-0.1311 0.7081,-0.1433 1.0034,-0.1177 0.8444,0.096 0.3623,0.2675 -0.089,0.2823 -1.8477,1.7312 -3.6959,3.4623 -3.6465,5.1912 0.049,1.7289 -0.052,3.6074 3.9432,5.1823 0.2048,0.1195 0.6198,0.2298 0.9331,0.3593 -0.4081,-1.3182 -0.8166,-2.6364 -0.6442,-3.9514 0.1723,-1.315 0.9257,-2.6269 1.6785,-3.9389 1.0685,0.8762 2.1366,1.7523 2.5165,2.6406 0.3803,0.8882 0.072,1.7886 -0.2362,2.6889 0.2815,0.2805 0.5681,0.561 0.8602,0.8413 0.2902,-1.0798 1.0361,-2.1547 2.283,-3.2039 1.2465,-1.0492 2.9939,-2.0728 4.1332,-2.7148 1.1387,-0.6421 1.6689,-0.9026 2.356,-1.1455 0.6868,-0.2428 1.5302,-0.468 2.486,-0.6713 0.9553,-0.2033 2.0224,-0.3849 3.1756,-0.5401 -2.7587,1.5046 -5.5169,3.0092 -6.4814,4.5598 -0.9641,1.5505 -0.1336,3.147 0.6964,4.7435 0.3976,0.199 0.8024,0.3978 1.216,0.5963 -0.045,-0.882 0.2509,-1.7647 0.9368,-2.6339 0.6859,-0.8691 1.7622,-1.7248 2.3626,-2.2089 0.6004,-0.4841 0.7251,-0.5966 0.9266,-0.7034 0.3785,-0.1972 1.0168,-0.3899 1.9208,-0.5615 0.4155,-0.078 0.8739,-0.1465 1.3638,-0.2042 -0.8777,1.1245 -1.7553,2.2491 -1.4734,3.3616 0.2815,1.1124 1.7216,2.2128 3.1621,3.3132 0.3014,-0.9364 0.6032,-1.8727 1.319,-2.7959 0.7159,-0.9232 1.8459,-1.8332 2.9763,-2.7431 1.033,0.8399 2.0659,1.6798 2.2619,2.5277 0.1959,0.8479 -0.445,1.7037 -1.0866,2.5596 1.0164,-0.8893 2.0326,-1.7785 2.8206,-2.6759 0.7876,-0.8974 1.3468,-1.8031 1.906,-2.7089 0.8023,0.1659 1.5145,0.3499 2.1172,0.5475 0.6031,0.1976 1.0971,0.4089 1.4701,0.6287 1.1706,0.6988 1.0879,1.4013 -0.021,2.0533 -0.033,0.5284 -0.1142,1.0567 -0.2417,1.585 1.3361,-1.2794 2.6722,-2.5589 3.762,-3.8469 1.0897,-1.2879 1.9336,-2.5844 2.7775,-3.881 0.9715,0.8156 1.8432,1.6323 2.511,2.4538 0.299,0.3403 0.6197,0.6811 0.6318,1.0268 0.027,0.6796 -0.7367,1.3722 -2.2827,2.0025 2.2785,-0.7387 4.557,-1.4773 7.2727,-2.1425 2.7156,-0.6652 5.8685,-1.2569 9.0214,-1.8486 -2.3469,0.7201 -4.2491,1.5 -5.643,2.3156 -1.394,0.8157 -2.2794,1.6671 -2.6283,2.5275 -0.3485,0.8604 -0.1604,1.7297 0.5522,2.5808 0.2371,0.1168 0.4788,0.2333 0.7252,0.3499 1.1512,-0.9041 2.3029,-1.8081 3.8738,-2.6809 1.5709,-0.873 3.5614,-1.7148 5.5515,-2.5566 -0.299,0.6715 -0.5985,1.343 -0.8957,2.0145 -0.8753,1.8522 -1.49,3.7042 -2.1702,5.5562 -49.103,0.032 -98.2055,0.012 -147.3079,-0.06 -50.90064,0.041 -101.80183,0.03 -152.70273,-0.032 -0.2493,-2.0647 -0.634,-4.1288 -1.1542,-6.1925 -1.1293,-1.91 -2.3936,-3.8184 -3.794,-5.7251 1.7824,0.9733 3.5506,1.9435 5.066,2.9262 2.6812,1.6888 4.1773,3.3625 5.7024,5.0304 0.3725,0.1262 0.7477,0.2522 1.1261,0.378 -1.458,-1.171 -2.229,-2.3774 -2.2846,-3.5851 -0.055,-1.2078 0.6042,-2.4169 1.9607,-3.5929 1.3565,-1.1761 3.4096,-2.319 6.0949,-3.397 0.6664,-0.1659 1.342,-0.3312 2.0271,-0.4961 -1.9836,1.1442 -3.44,2.3262 -4.3409,3.5253 -1.8198,2.416 -1.3441,4.8821 1.2879,7.2306 0.142,-0.1814 0.2841,-0.3627 0.4234,-0.5441 1.4573,-1.7608 2.159,-3.5332 2.4691,-5.2939 -0.1303,-0.013 -0.2533,-0.03 -0.3659,-0.048 -1.0162,-0.2051 -0.851,-0.3885 -0.2609,-0.5569 0.3902,-0.091 0.7406,-0.1174 1.1035,-0.1348 1.1787,0.8263 2.3574,1.6527 2.9055,2.4959 0.5481,0.8432 0.4656,1.7032 0.3831,2.5633 0.2967,-0.3521 0.5887,-0.7046 0.9043,-1.0564 1.2541,-1.5051 3.2514,-2.9947 5.5481,-4.4994 0.025,2.426 0.5147,4.8521 1.4741,7.2768 0.2315,0.099 0.4707,0.1967 0.7177,0.2946 -0.274,-0.997 -0.5482,-1.994 -0.2171,-2.9827 0.3311,-0.9887 1.2673,-1.969 2.2034,-2.9493 0.9905,0.5572 1.9809,1.1143 2.4714,1.6891 0.4904,0.5747 0.4808,1.167 0.4713,1.7593 0.6888,-0.7803 1.3568,-1.5661 2.3609,-2.3333 1.2058,-0.9774 3.0536,-1.9131 4.9585,-2.891 0.6415,-0.1568 1.2915,-0.3131 1.9501,-0.4689 -1.4582,1.22 -2.9165,2.4401 -3.6549,3.6778 -0.7383,1.2377 -0.7567,2.493 -0.7752,3.7484 0.4043,0.2885 0.8143,0.5769 1.23,0.8652 -0.2329,-1.0079 -0.4658,-2.0157 0.041,-3.0081 0.5061,-0.9923 1.7513,-1.9691 2.9965,-2.946 0.7712,0.2499 1.3512,0.5242 1.6863,0.8095 0.3346,0.2854 0.4252,0.5817 0.4187,0.7926 -0.01,0.2109 -0.1096,0.3363 -0.2375,0.4602 -0.1285,0.124 -0.282,0.2465 -0.4696,0.3668 -0.1,0.9075 -0.2048,1.8151 -0.3152,2.7226 2.0746,-1.1031 4.1493,-2.2062 5.4244,-3.3461 1.275,-1.1399 1.7511,-2.3166 2.2267,-3.4933 0.2329,-0.1374 0.4778,-0.2743 0.7357,-0.4108 0.3176,2.3764 1.1355,4.7527 2.4624,7.1271 0.2879,0.1686 0.5828,0.337 0.8851,0.5052 0.1289,-1.0007 0.2579,-2.0014 0.4432,-3.0016 0.5065,-2.9961 1.6083,-5.9934 2.9671,-8.9876 0.8985,1.5778 1.7807,3.1537 2.3427,4.7343 0.4834,1.4703 0.7071,2.9459 0.7676,4.4147 0.03,0.5667 -0.043,1.1337 0.045,1.7001 -0.01,0.088 0.055,0.1766 0.2292,0.259 0.2177,0.1178 0.8245,0.245 1.2802,0.2919 -0.2417,-1.1014 -0.5093,-2.2034 -0.415,-3.3047 0.047,-1.4161 0.8124,-2.8233 1.5459,-4.2378 0.6207,0.3512 1.0616,0.7155 1.2876,1.0848 0.226,0.3691 0.2376,0.7432 0.2187,0.9924 -0.019,0.2493 -0.068,0.3737 -0.1909,0.4965 -0.124,0.1227 -0.3231,0.2436 -0.3703,0.6875 -0.048,0.4439 0.057,1.2107 0.7243,1.9582 0.6674,0.7475 1.8976,1.4757 3.58069,2.1577 -0.2652,-0.9835 -0.53,-1.967 0.3333,-2.9079 0.8638,-0.9408 2.8562,-1.839 4.8481,-2.7372 1.0163,0.936 1.8643,1.8787 2.2229,2.815 0.2219,0.7149 0.2755,1.4431 1.2664,2.1247 0.5236,0.3804 1.3522,0.7435 2.1805,1.1065 -0.062,-1.6339 -0.1234,-3.2678 0.8079,-4.8781 0.9312,-1.6104 2.8552,-3.1971 4.7797,-4.7837 0.5905,-0.1918 1.1886,-0.3832 1.7936,-0.5743 -0.1405,-0.05 -0.135,-0.099 -0.024,-0.1458 0.3882,-0.1107 0.6955,-0.084 0.971,-0.065 0.4428,0.056 0.384,0.1 0.4095,0.1358 0.048,0.042 -0.2787,0.1383 -0.5453,0.1423 -1.8399,1.7312 -3.6797,3.4623 -3.6303,5.1912 0.049,1.7289 -0.055,3.6064 3.9256,5.1824 0.2038,0.1194 0.6174,0.2298 0.9289,0.3592 -0.3143,-0.9878 -0.6211,-1.9757 -0.6706,-2.9645 -0.1599,-1.6449 0.7663,-3.2825 1.7007,-4.9257 0.9789,0.6437 1.7036,1.3035 2.1334,1.9705 0.4298,0.667 0.5653,1.3413 0.5939,1.7906 0.029,0.4494 -0.049,0.6737 -0.1396,0.8977 -0.09,0.224 -0.1923,0.4476 -0.3174,0.6707 0.28,0.2805 0.5656,0.561 0.8563,0.8412 0.2884,-1.0796 1.0311,-2.1542 2.2724,-3.2034 1.2415,-1.0492 2.9815,-2.073 4.1152,-2.715 1.1336,-0.6421 1.6601,-0.9024 2.3436,-1.1451 0.6836,-0.2427 1.5233,-0.4678 2.4749,-0.6713 0.9516,-0.2034 2.015,-0.3852 3.1644,-0.5408 -2.7466,1.5051 -5.4933,3.0101 -6.4532,4.5606 -0.9598,1.5506 -0.133,3.1467 0.6938,4.7427 0.3951,0.1991 0.7985,0.3978 1.2103,0.5962 -0.045,-0.8817 0.2496,-1.7643 0.9327,-2.6335 0.6831,-0.8692 1.7548,-1.7249 2.3523,-2.209 0.5977,-0.4841 0.721,-0.5966 0.9216,-0.7032 0.3762,-0.1971 1.0117,-0.3898 1.912,-0.5614 0.4141,-0.078 0.8707,-0.1468 1.3592,-0.2047 -0.874,1.1244 -1.7474,2.2489 -1.4673,3.3614 0.2805,1.1125 1.7146,2.213 3.1486,3.3135 0.2663,-0.8172 0.5098,-1.6371 1.0723,-2.448 0.6535,-1.0384 1.9286,-2.0532 3.2041,-3.0911 1.6297,0.9881 2.2808,2.1025 2.3016,2.9566 0.02,0.4295 -0.1003,0.7729 -0.2981,1.1142 -0.1978,0.3414 -0.4733,0.6808 -0.8332,1.0164 2.1217,-1.7937 3.7301,-3.5891 4.7057,-5.3846 1.5177,0.3089 2.7142,0.6836 3.4209,1.0908 0.7066,0.4071 0.9229,0.8468 0.9599,1.1387 0.037,0.292 -0.1044,0.4363 -0.2667,0.5787 -0.1618,0.1424 -0.3433,0.2831 -0.5634,0.4212 -0.037,0.5284 -0.1174,1.0568 -0.2403,1.585 1.747,-2.4683 3.61595,-4.9348 5.60755,-7.3997 0.5901,1.7183 1.1766,3.4366 1.7599,5.1549 1.6125,-0.7737 3.2254,-1.5474 5.32499,-2.2622 2.1001,-0.7148 4.6868,-1.3708 7.2735,-2.0267 -1.9803,0.7857 -3.4888,1.6205 -4.4755,2.48 -0.9872,0.8594 -1.4522,1.7436 -1.3815,2.6259 0.07,0.8824 0.1405,1.7997 1.7955,2.6158 0.1623,0.1161 0.4876,0.227 0.722,0.3499 0.4898,-0.6737 1.111,-1.3435 1.8703,-2.0066 0.7593,-0.6632 1.6564,-1.3197 2.4444,-1.8462 0.788,-0.5265 1.4664,-0.9229 2.1837,-1.3163 0.7178,-0.3934 1.4739,-0.7838 2.2738,-1.1706 0.5297,1.953 1.0597,3.906 1.5806,5.8591 z"
         id="Shape #1-8-0-6-0"
         label="Shape #1"
         inkscape:connector-curvature="0"
         style="fill:#222222;stroke:none;display:inline;fill-opacity:1" />
      <rect
         y="544.42114"
         x="268.55853"
         height="2.2728431"
         width="1.9256033"
         id="rect59303"
         style="fill:#222222;fill-opacity:1;stroke:#666666;stroke-width:0;stroke-miterlimit:4;stroke-opacity:0;stroke-dasharray:none" />
    </g>
  </g>
</svg>
