<?xml version="1.0" encoding="UTF-8" standalone="no"?>
<!-- Created with Inkscape (http://www.inkscape.org/) -->

<svg
   xmlns:dc="http://purl.org/dc/elements/1.1/"
   xmlns:cc="http://creativecommons.org/ns#"
   xmlns:rdf="http://www.w3.org/1999/02/22-rdf-syntax-ns#"
   xmlns:svg="http://www.w3.org/2000/svg"
   xmlns="http://www.w3.org/2000/svg"
   xmlns:sodipodi="http://sodipodi.sourceforge.net/DTD/sodipodi-0.dtd"
   xmlns:inkscape="http://www.inkscape.org/namespaces/inkscape"
   version="1.0"
   width="312.42883"
   height="404.73724"
   id="svg2394"
   inkscape:version="0.48.4 r9939"
   sodipodi:docname="padlock.svg">
  <metadata
     id="metadata8">
    <rdf:RDF>
      <cc:Work
         rdf:about="">
        <dc:format>image/svg+xml</dc:format>
        <dc:type
           rdf:resource="http://purl.org/dc/dcmitype/StillImage" />
      </cc:Work>
    </rdf:RDF>
  </metadata>
  <sodipodi:namedview
     pagecolor="#ffffff"
     bordercolor="#666666"
     borderopacity="1"
     objecttolerance="10"
     gridtolerance="10"
     guidetolerance="10"
     inkscape:pageopacity="0"
     inkscape:pageshadow="2"
     inkscape:window-width="753"
     inkscape:window-height="480"
     id="namedview6"
     showgrid="false"
     inkscape:zoom="0.472"
     inkscape:cx="152.99794"
     inkscape:cy="206.00501"
     inkscape:window-x="0"
     inkscape:window-y="27"
     inkscape:window-maximized="0"
     inkscape:current-layer="svg2394"
     fit-margin-top="0"
     fit-margin-left="0"
     fit-margin-right="0"
     fit-margin-bottom="0" />
  <defs
     id="defs2396" />
  <path
     inkscape:connector-curvature="0"
     style="fill:#666666;fill-opacity:1;fill-rule:evenodd"
     id="path14"
     d="m 0.355071,383.43531 c 2.023662,12.10662 12.532641,21.30195 25.207301,21.30195 l 261.304068,0 c 12.67465,0 23.18363,-9.19533 25.2073,-21.30195 l -311.718669,0 z M 25.562372,184.61704 C 11.432092,184.61704 0,196.04908 0,210.17938 l 0,155.50429 312.42882,0 0,-155.50429 c 0,-14.1303 -11.4321,-25.56234 -25.56238,-25.56234 l -15.58595,0 c 0.21304,-2.9468 0.31955,-66.24912 0.31955,-69.2314 C 271.60004,51.657258 219.94278,0 156.2144,0 92.486042,0 40.828772,51.657258 40.828772,115.38564 c 0,2.98228 0.10651,66.2846 0.31956,69.2314 l -15.58596,0 z m 175.954188,0 -90.60431,0 c -0.56806,-2.87579 -0.85211,-66.17813 -0.85211,-69.2314 0,-25.491342 20.66293,-46.154222 46.15426,-46.154222 25.49136,0 46.15428,20.66288 46.15428,46.154222 0,3.05327 -0.28404,66.35561 -0.85212,69.2314 z" />
</svg>
