<?xml version="1.0" encoding="UTF-8" standalone="no"?>
<!-- Created with Inkscape (http://www.inkscape.org/) -->

<svg
   xmlns:dc="http://purl.org/dc/elements/1.1/"
   xmlns:cc="http://creativecommons.org/ns#"
   xmlns:rdf="http://www.w3.org/1999/02/22-rdf-syntax-ns#"
   xmlns:svg="http://www.w3.org/2000/svg"
   xmlns="http://www.w3.org/2000/svg"
   xmlns:sodipodi="http://sodipodi.sourceforge.net/DTD/sodipodi-0.dtd"
   xmlns:inkscape="http://www.inkscape.org/namespaces/inkscape"
   width="11.570147"
   height="10.045168"
   id="svg58821"
   version="1.1"
   inkscape:version="0.48.4 r9939"
   sodipodi:docname="texture.svg">
  <defs
     id="defs58823">
    <clipPath
       clipPathUnits="userSpaceOnUse"
       id="clipPath58696">
      <rect
         style="fill:#666666;fill-opacity:1;stroke:#666666;stroke-width:0.9567737;stroke-miterlimit:4;stroke-opacity:0;stroke-dasharray:none"
         id="rect58698"
         width="11.570147"
         height="10.045168"
         x="272.0853"
         y="514.38464" />
    </clipPath>
  </defs>
  <sodipodi:namedview
     id="base"
     pagecolor="#ffffff"
     bordercolor="#666666"
     borderopacity="1.0"
     inkscape:pageopacity="0.0"
     inkscape:pageshadow="2"
     inkscape:zoom="22.4"
     inkscape:cx="1.6110643"
     inkscape:cy="-2.9622952"
     inkscape:document-units="px"
     inkscape:current-layer="layer1"
     showgrid="false"
     fit-margin-top="0"
     fit-margin-left="0"
     fit-margin-right="0"
     fit-margin-bottom="0"
     inkscape:window-width="1600"
     inkscape:window-height="845"
     inkscape:window-x="0"
     inkscape:window-y="27"
     inkscape:window-maximized="1" />
  <metadata
     id="metadata58826">
    <rdf:RDF>
      <cc:Work
         rdf:about="">
        <dc:format>image/svg+xml</dc:format>
        <dc:type
           rdf:resource="http://purl.org/dc/dcmitype/StillImage" />
        <dc:title />
      </cc:Work>
    </rdf:RDF>
  </metadata>
  <g
     inkscape:label="Layer 1"
     inkscape:groupmode="layer"
     id="layer1"
     transform="translate(-279.92921,-530.19674)">
    <g
       id="g3050"
       style="fill:#2d2d2d;fill-opacity:0.3137255">
      <path
         inkscape:connector-curvature="0"
         d="m 288.46759,533.65116 c 0,0 -2.66638,-1.54266 -2.73953,-1.58294 -0.11077,0.059 -2.77877,1.59423 -2.77877,1.59423 l 0.023,3.1864 c 1.4602,-2.68863 3.00631,-4.60044 5.49588,-3.19555 z"
         id="path861-7-9-4-0-3-8-9-95-5-24-4-2-5"
         sodipodi:nodetypes="cccccc"
         style="fill:#2d2d2d;fill-opacity:0.3137255;stroke:#999999;stroke-width:0;stroke-miterlimit:4;stroke-opacity:1;stroke-dasharray:none;display:inline" />
      <path
         inkscape:connector-curvature="0"
         d="m 294.23439,533.64228 c 0,0 -2.66638,-1.54266 -2.73953,-1.58294 -0.11077,0.059 -2.77877,1.59423 -2.77877,1.59423 l 0.023,3.1864 c 1.4602,-2.68863 3.00631,-4.60044 5.49588,-3.19555 z"
         id="path861-7-9-4-0-3-8-9-95-5-24-4-2-5-1"
         sodipodi:nodetypes="cccccc"
         style="fill:#2d2d2d;fill-opacity:0.3137255;stroke:#999999;stroke-width:0;stroke-miterlimit:4;stroke-opacity:1;stroke-dasharray:none;display:inline" />
      <path
         inkscape:connector-curvature="0"
         d="m 282.70147,533.66096 c 0,0 -2.66638,-1.54266 -2.73953,-1.58294 -0.11077,0.059 -2.77877,1.59423 -2.77877,1.59423 l 0.023,3.1864 c 1.4602,-2.68863 3.00631,-4.60044 5.49588,-3.19555 z"
         id="path861-7-9-4-0-3-8-9-95-5-24-4-2-5-7"
         sodipodi:nodetypes="cccccc"
         style="fill:#2d2d2d;fill-opacity:0.3137255;stroke:#999999;stroke-width:0;stroke-miterlimit:4;stroke-opacity:1;stroke-dasharray:none;display:inline" />
      <path
         inkscape:connector-curvature="0"
         d="m 285.60332,528.64883 c 0,0 -2.66638,-1.54266 -2.73953,-1.58294 -0.11077,0.059 -2.77877,1.59423 -2.77877,1.59423 l 0.023,3.1864 c 1.4602,-2.68863 3.00631,-4.60044 5.49588,-3.19555 z"
         id="path861-7-9-4-0-3-8-9-95-5-24-4-2-5-2"
         sodipodi:nodetypes="cccccc"
         style="fill:#2d2d2d;fill-opacity:0.3137255;stroke:#999999;stroke-width:0;stroke-miterlimit:4;stroke-opacity:1;stroke-dasharray:none;display:inline" />
      <path
         inkscape:connector-curvature="0"
         d="m 291.37012,528.63995 c 0,0 -2.66638,-1.54266 -2.73953,-1.58294 -0.11077,0.059 -2.77877,1.59423 -2.77877,1.59423 l 0.023,3.1864 c 1.4602,-2.68863 3.00631,-4.60044 5.49588,-3.19555 z"
         id="path861-7-9-4-0-3-8-9-95-5-24-4-2-5-1-0"
         sodipodi:nodetypes="cccccc"
         style="fill:#2d2d2d;fill-opacity:0.3137255;stroke:#999999;stroke-width:0;stroke-miterlimit:4;stroke-opacity:1;stroke-dasharray:none;display:inline" />
      <path
         inkscape:connector-curvature="0"
         d="m 285.57244,538.65195 c 0,0 -2.66638,-1.54266 -2.73953,-1.58294 -0.11077,0.059 -2.77877,1.59423 -2.77877,1.59423 l 0.023,3.1864 c 1.4602,-2.68863 3.00631,-4.60044 5.49588,-3.19555 z"
         id="path861-7-9-4-0-3-8-9-95-5-24-4-2-5-2-6"
         sodipodi:nodetypes="cccccc"
         style="fill:#2d2d2d;fill-opacity:0.3137255;stroke:#999999;stroke-width:0;stroke-miterlimit:4;stroke-opacity:1;stroke-dasharray:none;display:inline" />
      <path
         inkscape:connector-curvature="0"
         d="m 291.33372,538.64307 c 0,0 -2.66638,-1.54266 -2.73953,-1.58294 -0.11077,0.059 -2.77877,1.59423 -2.77877,1.59423 l 0.023,3.1864 c 1.4602,-2.68863 3.00631,-4.60044 5.49588,-3.19555 z"
         id="path861-7-9-4-0-3-8-9-95-5-24-4-2-5-1-0-4"
         sodipodi:nodetypes="cccccc"
         style="fill:#2d2d2d;fill-opacity:0.3137255;stroke:#999999;stroke-width:0;stroke-miterlimit:4;stroke-opacity:1;stroke-dasharray:none;display:inline" />
    </g>
    <g
       id="g3059"
       style="stroke:#1d1d1d;stroke-opacity:1">
      <path
         id="path1434-2-8-8-4-7-9-2"
         d="m 282.92659,533.63671 c 0,0 -0.009,3.23776 -0.009,3.23776 0,0 2.79116,1.61284 2.79116,1.61284 0,0 2.80049,-1.62492 2.80049,-1.62492 0,0 0.009,-3.23773 0.009,-3.23773 0,0 -2.79115,-1.61284 -2.79115,-1.61284 0,0 -2.8005,1.62489 -2.8005,1.62489 z"
         inkscape:connector-curvature="0"
         style="fill:none;stroke:#1d1d1d;stroke-width:0.09906152000000000;stroke-miterlimit:4;stroke-opacity:1;stroke-dasharray:none" />
      <path
         id="path1434-2-8-8-4-7-9-2-1"
         d="m 288.69339,533.62783 c 0,0 -0.009,3.23776 -0.009,3.23776 0,0 2.79116,1.61284 2.79116,1.61284 0,0 2.80049,-1.62492 2.80049,-1.62492 0,0 0.009,-3.23773 0.009,-3.23773 0,0 -2.79115,-1.61284 -2.79115,-1.61284 0,0 -2.8005,1.62489 -2.8005,1.62489 z"
         inkscape:connector-curvature="0"
         style="fill:none;stroke:#1d1d1d;stroke-width:0.09906152000000000;stroke-miterlimit:4;stroke-opacity:1;stroke-dasharray:none" />
      <path
         id="path1434-2-8-8-4-7-9-2-4"
         d="m 277.16047,533.64651 c 0,0 -0.009,3.23776 -0.009,3.23776 0,0 2.79116,1.61284 2.79116,1.61284 0,0 2.80049,-1.62492 2.80049,-1.62492 0,0 0.009,-3.23773 0.009,-3.23773 0,0 -2.79115,-1.61284 -2.79115,-1.61284 0,0 -2.8005,1.62489 -2.8005,1.62489 z"
         inkscape:connector-curvature="0"
         style="fill:none;stroke:#1d1d1d;stroke-width:0.09906152000000000;stroke-miterlimit:4;stroke-opacity:1;stroke-dasharray:none" />
      <path
         id="path1434-2-8-8-4-7-9-2-14"
         d="m 280.06232,528.63438 c 0,0 -0.009,3.23776 -0.009,3.23776 0,0 2.79116,1.61284 2.79116,1.61284 0,0 2.80049,-1.62492 2.80049,-1.62492 0,0 0.009,-3.23773 0.009,-3.23773 0,0 -2.79115,-1.61284 -2.79115,-1.61284 0,0 -2.8005,1.62489 -2.8005,1.62489 z"
         inkscape:connector-curvature="0"
         style="fill:none;stroke:#1d1d1d;stroke-width:0.09906152000000000;stroke-miterlimit:4;stroke-opacity:1;stroke-dasharray:none" />
      <path
         id="path1434-2-8-8-4-7-9-2-1-5"
         d="m 285.82912,528.6255 c 0,0 -0.009,3.23776 -0.009,3.23776 0,0 2.79116,1.61284 2.79116,1.61284 0,0 2.80049,-1.62492 2.80049,-1.62492 0,0 0.009,-3.23773 0.009,-3.23773 0,0 -2.79115,-1.61284 -2.79115,-1.61284 0,0 -2.8005,1.62489 -2.8005,1.62489 z"
         inkscape:connector-curvature="0"
         style="fill:none;stroke:#1d1d1d;stroke-width:0.09906152000000000;stroke-miterlimit:4;stroke-opacity:1;stroke-dasharray:none" />
      <path
         id="path1434-2-8-8-4-7-9-2-14-5"
         d="m 280.03144,538.6375 c 0,0 -0.009,3.23776 -0.009,3.23776 0,0 2.79116,1.61284 2.79116,1.61284 0,0 2.80049,-1.62492 2.80049,-1.62492 0,0 0.009,-3.23773 0.009,-3.23773 0,0 -2.79115,-1.61284 -2.79115,-1.61284 0,0 -2.8005,1.62489 -2.8005,1.62489 z"
         inkscape:connector-curvature="0"
         style="fill:none;stroke:#1d1d1d;stroke-width:0.09906152000000000;stroke-miterlimit:4;stroke-opacity:1;stroke-dasharray:none" />
      <path
         id="path1434-2-8-8-4-7-9-2-1-5-7"
         d="m 285.79272,538.62862 c 0,0 -0.009,3.23776 -0.009,3.23776 0,0 2.79116,1.61284 2.79116,1.61284 0,0 2.80049,-1.62492 2.80049,-1.62492 0,0 0.009,-3.23773 0.009,-3.23773 0,0 -2.79115,-1.61284 -2.79115,-1.61284 0,0 -2.8005,1.62489 -2.8005,1.62489 z"
         inkscape:connector-curvature="0"
         style="fill:none;stroke:#1d1d1d;stroke-width:0.09906152000000000;stroke-miterlimit:4;stroke-opacity:1;stroke-dasharray:none" />
    </g>
  </g>
</svg>
